<svg width="220" height="220" viewBox="0 0 220 220" fill="none" xmlns="http://www.w3.org/2000/svg">
<path d="M220 110C220 170.751 170.751 220 110 220C49.2487 220 0 170.751 0 110C0 49.2487 49.2487 0 110 0C170.751 0 220 49.2487 220 110ZM33 110C33 152.526 67.4741 187 110 187C152.526 187 187 152.526 187 110C187 67.4741 152.526 33 110 33C67.4741 33 33 67.4741 33 110Z" fill="#EDEEFF"/>
<path d="M38.3749 49.8993C31.3941 44.0418 30.4128 33.5216 37.2478 27.4947C48.2377 17.804 61.0965 10.3687 75.0965 5.68439C94.3346 -0.752592 114.978 -1.74417 134.745 2.8193C154.511 7.38276 172.631 17.3235 187.1 31.5425C201.569 45.7614 211.825 63.7047 216.733 83.3886C221.64 103.072 221.009 123.73 214.909 143.078C208.809 162.425 197.477 179.709 182.166 193.018C166.856 206.327 148.163 215.143 128.155 218.491C113.595 220.928 98.7505 220.4 84.4975 217.003C75.6331 214.89 71.5606 205.141 74.9743 196.692C78.388 188.243 88.0151 184.355 96.997 185.894C105.466 187.345 114.157 187.375 122.709 185.944C136.714 183.6 149.799 177.429 160.517 168.113C171.234 158.796 179.166 146.698 183.436 133.154C187.706 119.611 188.148 105.151 184.713 91.372C181.277 77.5933 174.099 65.033 163.97 55.0797C153.841 45.1264 141.158 38.1679 127.321 34.9735C113.485 31.7791 99.0342 32.4732 85.5676 36.9791C77.3454 39.7302 69.6856 43.8368 62.8889 49.094C55.6808 54.6694 45.3556 55.7569 38.3749 49.8993Z" fill="#7579FF"/>
<path d="M92.6901 100.572L83.1141 123H78.0021L87.6501 101.148H75.3381V96.828H92.6901V100.572ZM95.7088 109.536C95.7088 105.384 96.4528 102.132 97.9408 99.78C99.4528 97.428 101.949 96.252 105.429 96.252C108.909 96.252 111.393 97.428 112.881 99.78C114.393 102.132 115.149 105.384 115.149 109.536C115.149 113.712 114.393 116.988 112.881 119.364C111.393 121.74 108.909 122.928 105.429 122.928C101.949 122.928 99.4528 121.74 97.9408 119.364C96.4528 116.988 95.7088 113.712 95.7088 109.536ZM110.181 109.536C110.181 107.76 110.061 106.272 109.821 105.072C109.605 103.848 109.149 102.852 108.453 102.084C107.781 101.316 106.773 100.932 105.429 100.932C104.085 100.932 103.065 101.316 102.369 102.084C101.697 102.852 101.241 103.848 101.001 105.072C100.785 106.272 100.677 107.76 100.677 109.536C100.677 111.36 100.785 112.896 101.001 114.144C101.217 115.368 101.673 116.364 102.369 117.132C103.065 117.876 104.085 118.248 105.429 118.248C106.773 118.248 107.793 117.876 108.489 117.132C109.185 116.364 109.641 115.368 109.857 114.144C110.073 112.896 110.181 111.36 110.181 109.536ZM118.406 103.2C118.406 101.376 118.934 99.948 119.99 98.916C121.07 97.884 122.45 97.368 124.13 97.368C125.81 97.368 127.178 97.884 128.234 98.916C129.314 99.948 129.854 101.376 129.854 103.2C129.854 105.048 129.314 106.488 128.234 107.52C127.178 108.552 125.81 109.068 124.13 109.068C122.45 109.068 121.07 108.552 119.99 107.52C118.934 106.488 118.406 105.048 118.406 103.2ZM141.518 97.8L127.37 123H122.474L136.586 97.8H141.518ZM124.094 100.392C122.774 100.392 122.114 101.328 122.114 103.2C122.114 105.096 122.774 106.044 124.094 106.044C124.742 106.044 125.246 105.816 125.606 105.36C125.966 104.88 126.146 104.16 126.146 103.2C126.146 101.328 125.462 100.392 124.094 100.392ZM134.21 117.564C134.21 115.716 134.738 114.288 135.794 113.28C136.874 112.248 138.254 111.732 139.934 111.732C141.614 111.732 142.97 112.248 144.002 113.28C145.058 114.288 145.586 115.716 145.586 117.564C145.586 119.412 145.058 120.852 144.002 121.884C142.97 122.916 141.614 123.432 139.934 123.432C138.23 123.432 136.85 122.916 135.794 121.884C134.738 120.852 134.21 119.412 134.21 117.564ZM139.898 114.756C138.53 114.756 137.846 115.692 137.846 117.564C137.846 119.46 138.53 120.408 139.898 120.408C141.242 120.408 141.914 119.46 141.914 117.564C141.914 115.692 141.242 114.756 139.898 114.756Z" fill="#5F6073"/>
</svg>
