<svg width="220" height="220" viewBox="0 0 220 220" fill="none" xmlns="http://www.w3.org/2000/svg">
<path d="M220 110C220 170.751 170.751 220 110 220C49.2487 220 0 170.751 0 110C0 49.2487 49.2487 0 110 0C170.751 0 220 49.2487 220 110ZM33 110C33 152.526 67.4741 187 110 187C152.526 187 187 152.526 187 110C187 67.4741 152.526 33 110 33C67.4741 33 33 67.4741 33 110Z" fill="#EDEEFF"/>
<path d="M38.3749 49.8993C31.3941 44.0418 30.4129 33.5215 37.2479 27.4945C50.4057 15.8922 66.2126 7.5499 83.3887 3.26745C105.928 -2.35232 129.669 -0.69221 151.207 8.00983C172.745 16.7119 190.976 32.0091 203.285 51.7091C215.595 71.409 221.353 94.5004 219.732 117.674C218.112 140.847 209.197 162.912 194.265 180.707C179.333 198.502 159.151 211.113 136.611 216.733C114.071 222.352 90.331 220.692 68.7928 211.99C52.38 205.359 37.888 194.898 26.473 181.577C20.5433 174.657 22.9792 164.376 30.7073 159.547C38.4353 154.718 48.5086 157.232 54.8706 163.756C62.2751 171.35 71.2114 177.376 81.155 181.393C96.2317 187.485 112.85 188.647 128.628 184.713C144.406 180.779 158.533 171.951 168.985 159.495C179.438 147.038 185.678 131.593 186.812 115.371C187.947 99.1502 183.917 82.9863 175.3 69.1964C166.683 55.4064 153.922 44.6983 138.845 38.6069C123.768 32.5155 107.15 31.3534 91.3721 35.2872C80.9662 37.8817 71.2782 42.6049 62.8889 49.0939C55.6808 54.6693 45.3556 55.7569 38.3749 49.8993Z" fill="#7579FF"/>
<path d="M78.673 109.104C76.273 107.856 75.073 105.924 75.073 103.308C75.073 102.012 75.397 100.836 76.045 99.78C76.717 98.7 77.713 97.848 79.033 97.224C80.377 96.576 82.009 96.252 83.929 96.252C85.849 96.252 87.469 96.576 88.789 97.224C90.133 97.848 91.129 98.7 91.777 99.78C92.449 100.836 92.785 102.012 92.785 103.308C92.785 104.628 92.461 105.792 91.813 106.8C91.165 107.784 90.301 108.552 89.221 109.104C90.541 109.68 91.573 110.52 92.317 111.624C93.061 112.728 93.433 114.036 93.433 115.548C93.433 117.18 93.013 118.608 92.173 119.832C91.357 121.032 90.229 121.956 88.789 122.604C87.349 123.252 85.729 123.576 83.929 123.576C82.129 123.576 80.509 123.252 79.069 122.604C77.653 121.956 76.525 121.032 75.685 119.832C74.869 118.608 74.461 117.18 74.461 115.548C74.461 114.036 74.833 112.728 75.577 111.624C76.321 110.496 77.353 109.656 78.673 109.104ZM87.889 104.028C87.889 102.852 87.529 101.94 86.809 101.292C86.113 100.644 85.153 100.32 83.929 100.32C82.729 100.32 81.769 100.644 81.049 101.292C80.353 101.94 80.005 102.864 80.005 104.064C80.005 105.144 80.365 106.008 81.085 106.656C81.829 107.304 82.777 107.628 83.929 107.628C85.081 107.628 86.029 107.304 86.773 106.656C87.517 105.984 87.889 105.108 87.889 104.028ZM83.929 111.3C82.561 111.3 81.445 111.648 80.581 112.344C79.741 113.04 79.321 114.036 79.321 115.332C79.321 116.532 79.729 117.516 80.545 118.284C81.385 119.028 82.513 119.4 83.929 119.4C85.345 119.4 86.461 119.016 87.277 118.248C88.093 117.48 88.501 116.508 88.501 115.332C88.501 114.06 88.081 113.076 87.241 112.38C86.401 111.66 85.297 111.3 83.929 111.3ZM97.4139 109.536C97.4139 105.384 98.1579 102.132 99.6459 99.78C101.158 97.428 103.654 96.252 107.134 96.252C110.614 96.252 113.098 97.428 114.586 99.78C116.098 102.132 116.854 105.384 116.854 109.536C116.854 113.712 116.098 116.988 114.586 119.364C113.098 121.74 110.614 122.928 107.134 122.928C103.654 122.928 101.158 121.74 99.6459 119.364C98.1579 116.988 97.4139 113.712 97.4139 109.536ZM111.886 109.536C111.886 107.76 111.766 106.272 111.526 105.072C111.31 103.848 110.854 102.852 110.158 102.084C109.486 101.316 108.478 100.932 107.134 100.932C105.79 100.932 104.77 101.316 104.074 102.084C103.402 102.852 102.946 103.848 102.706 105.072C102.49 106.272 102.382 107.76 102.382 109.536C102.382 111.36 102.49 112.896 102.706 114.144C102.922 115.368 103.378 116.364 104.074 117.132C104.77 117.876 105.79 118.248 107.134 118.248C108.478 118.248 109.498 117.876 110.194 117.132C110.89 116.364 111.346 115.368 111.562 114.144C111.778 112.896 111.886 111.36 111.886 109.536ZM120.111 103.2C120.111 101.376 120.639 99.948 121.695 98.916C122.775 97.884 124.155 97.368 125.835 97.368C127.515 97.368 128.883 97.884 129.939 98.916C131.019 99.948 131.559 101.376 131.559 103.2C131.559 105.048 131.019 106.488 129.939 107.52C128.883 108.552 127.515 109.068 125.835 109.068C124.155 109.068 122.775 108.552 121.695 107.52C120.639 106.488 120.111 105.048 120.111 103.2ZM143.223 97.8L129.075 123H124.179L138.291 97.8H143.223ZM125.799 100.392C124.479 100.392 123.819 101.328 123.819 103.2C123.819 105.096 124.479 106.044 125.799 106.044C126.447 106.044 126.951 105.816 127.311 105.36C127.671 104.88 127.851 104.16 127.851 103.2C127.851 101.328 127.167 100.392 125.799 100.392ZM135.915 117.564C135.915 115.716 136.443 114.288 137.499 113.28C138.579 112.248 139.959 111.732 141.639 111.732C143.319 111.732 144.675 112.248 145.707 113.28C146.763 114.288 147.291 115.716 147.291 117.564C147.291 119.412 146.763 120.852 145.707 121.884C144.675 122.916 143.319 123.432 141.639 123.432C139.935 123.432 138.555 122.916 137.499 121.884C136.443 120.852 135.915 119.412 135.915 117.564ZM141.603 114.756C140.235 114.756 139.551 115.692 139.551 117.564C139.551 119.46 140.235 120.408 141.603 120.408C142.947 120.408 143.619 119.46 143.619 117.564C143.619 115.692 142.947 114.756 141.603 114.756Z" fill="#5F6073"/>
</svg>
