<svg width="220" height="220" viewBox="0 0 220 220" fill="none" xmlns="http://www.w3.org/2000/svg">
<path d="M220 110C220 170.751 170.751 220 110 220C49.2487 220 0 170.751 0 110C0 49.2487 49.2487 0 110 0C170.751 0 220 49.2487 220 110ZM33 110C33 152.526 67.4741 187 110 187C152.526 187 187 152.526 187 110C187 67.4741 152.526 33 110 33C67.4741 33 33 67.4741 33 110Z" fill="#EDEEFF"/>
<path d="M38.3749 49.8993C31.3941 44.0418 30.4129 33.5213 37.2479 27.4944C52.5803 13.9745 71.469 4.91831 91.8448 1.50858C117.677 -2.81423 144.204 2.22206 166.654 15.7116C189.105 29.2011 206.005 50.2586 214.316 75.0965C222.626 99.9344 221.802 126.923 211.99 151.207C202.179 175.491 184.024 195.477 160.792 207.571C137.56 219.665 110.775 223.072 85.2554 217.181C59.7353 211.289 37.155 196.485 21.5758 175.431C9.28726 158.824 1.99078 139.188 0.353258 118.812C-0.376728 109.728 7.63726 102.842 16.7278 103.478C25.8183 104.113 32.49 112.068 33.8021 121.086C35.6197 133.578 40.4944 145.519 48.103 155.801C59.0085 170.539 74.8147 180.902 92.6788 185.027C110.543 189.151 129.292 186.766 145.555 178.3C161.817 169.834 174.525 155.844 181.393 138.845C188.261 121.846 188.838 102.954 183.021 85.5675C177.203 68.181 165.373 53.4408 149.658 43.9981C133.943 34.5554 115.374 31.03 97.2913 34.056C84.6753 36.1672 72.8738 41.3708 62.889 49.0938C55.6808 54.6691 45.3556 55.7569 38.3749 49.8993Z" fill="#7579FF"/>
<path d="M79.9119 115.62C80.1039 116.676 80.5359 117.492 81.2079 118.068C81.9039 118.62 82.8279 118.896 83.9799 118.896C85.4679 118.896 86.5479 118.284 87.2199 117.06C87.8919 115.812 88.2279 113.724 88.2279 110.796C87.6759 111.564 86.8959 112.164 85.8879 112.596C84.9039 113.028 83.8359 113.244 82.6839 113.244C81.1479 113.244 79.7559 112.932 78.5079 112.308C77.2839 111.66 76.3119 110.712 75.5919 109.464C74.8719 108.192 74.5119 106.656 74.5119 104.856C74.5119 102.192 75.3039 100.08 76.8879 98.52C78.4719 96.936 80.6319 96.144 83.3679 96.144C86.7759 96.144 89.1759 97.236 90.5679 99.42C91.9839 101.604 92.6919 104.892 92.6919 109.284C92.6919 112.404 92.4159 114.96 91.8639 116.952C91.3359 118.944 90.4119 120.456 89.0919 121.488C87.7959 122.52 86.0199 123.036 83.7639 123.036C81.9879 123.036 80.4759 122.7 79.2279 122.028C77.9799 121.332 77.0199 120.432 76.3479 119.328C75.6999 118.2 75.3279 116.964 75.2319 115.62H79.9119ZM83.7279 109.14C84.9759 109.14 85.9599 108.756 86.6799 107.988C87.3999 107.22 87.7599 106.188 87.7599 104.892C87.7599 103.476 87.3759 102.384 86.6079 101.616C85.8639 100.824 84.8439 100.428 83.5479 100.428C82.2519 100.428 81.2199 100.836 80.4519 101.652C79.7079 102.444 79.3359 103.5 79.3359 104.82C79.3359 106.092 79.6959 107.136 80.4159 107.952C81.1599 108.744 82.2639 109.14 83.7279 109.14ZM96.615 109.536C96.615 105.384 97.359 102.132 98.847 99.78C100.359 97.428 102.855 96.252 106.335 96.252C109.815 96.252 112.299 97.428 113.787 99.78C115.299 102.132 116.055 105.384 116.055 109.536C116.055 113.712 115.299 116.988 113.787 119.364C112.299 121.74 109.815 122.928 106.335 122.928C102.855 122.928 100.359 121.74 98.847 119.364C97.359 116.988 96.615 113.712 96.615 109.536ZM111.087 109.536C111.087 107.76 110.967 106.272 110.727 105.072C110.511 103.848 110.055 102.852 109.359 102.084C108.687 101.316 107.679 100.932 106.335 100.932C104.991 100.932 103.971 101.316 103.275 102.084C102.603 102.852 102.147 103.848 101.907 105.072C101.691 106.272 101.583 107.76 101.583 109.536C101.583 111.36 101.691 112.896 101.907 114.144C102.123 115.368 102.579 116.364 103.275 117.132C103.971 117.876 104.991 118.248 106.335 118.248C107.679 118.248 108.699 117.876 109.395 117.132C110.091 116.364 110.547 115.368 110.763 114.144C110.979 112.896 111.087 111.36 111.087 109.536ZM119.312 103.2C119.312 101.376 119.84 99.948 120.896 98.916C121.976 97.884 123.356 97.368 125.036 97.368C126.716 97.368 128.084 97.884 129.14 98.916C130.22 99.948 130.76 101.376 130.76 103.2C130.76 105.048 130.22 106.488 129.14 107.52C128.084 108.552 126.716 109.068 125.036 109.068C123.356 109.068 121.976 108.552 120.896 107.52C119.84 106.488 119.312 105.048 119.312 103.2ZM142.424 97.8L128.276 123H123.38L137.492 97.8H142.424ZM125 100.392C123.68 100.392 123.02 101.328 123.02 103.2C123.02 105.096 123.68 106.044 125 106.044C125.648 106.044 126.152 105.816 126.512 105.36C126.872 104.88 127.052 104.16 127.052 103.2C127.052 101.328 126.368 100.392 125 100.392ZM135.116 117.564C135.116 115.716 135.644 114.288 136.7 113.28C137.78 112.248 139.16 111.732 140.84 111.732C142.52 111.732 143.876 112.248 144.908 113.28C145.964 114.288 146.492 115.716 146.492 117.564C146.492 119.412 145.964 120.852 144.908 121.884C143.876 122.916 142.52 123.432 140.84 123.432C139.136 123.432 137.756 122.916 136.7 121.884C135.644 120.852 135.116 119.412 135.116 117.564ZM140.804 114.756C139.436 114.756 138.752 115.692 138.752 117.564C138.752 119.46 139.436 120.408 140.804 120.408C142.148 120.408 142.82 119.46 142.82 117.564C142.82 115.692 142.148 114.756 140.804 114.756Z" fill="#5F6073"/>
</svg>
