<svg width="230" height="137" viewBox="0 0 230 137" fill="none" xmlns="http://www.w3.org/2000/svg">
<path fill-rule="evenodd" clip-rule="evenodd" d="M186.478 88.4748C200.407 88.8114 214.64 88.1382 227.958 92.9113C228.751 93.1928 229.624 92.7828 229.911 91.9873C230.192 91.1918 229.783 90.3167 228.989 90.0291C215.36 85.1459 200.803 85.7578 186.552 85.4151C185.709 85.3907 185.007 86.0638 184.988 86.9083C184.964 87.7527 185.636 88.4503 186.478 88.4748Z" fill="url(#paint0_linear_16_84)"/>
<path fill-rule="evenodd" clip-rule="evenodd" d="M185.227 68.2094C189.568 64.2061 194.307 61.2071 200.034 59.7207C200.852 59.5089 201.341 58.6736 201.133 57.8561C200.919 57.0385 200.083 56.5472 199.271 56.7589C193.043 58.3744 187.883 61.6066 183.163 65.9569C182.54 66.5284 182.497 67.4971 183.071 68.1188C183.639 68.7399 184.61 68.7809 185.227 68.2094Z" fill="url(#paint1_linear_16_84)"/>
<path fill-rule="evenodd" clip-rule="evenodd" d="M173.149 24.5034C175.14 17.665 179.06 12.3155 185.068 8.45238C185.776 7.99649 185.984 7.04923 185.526 6.33878C185.074 5.62833 184.128 5.42148 183.419 5.87737C176.77 10.1548 172.422 16.0746 170.218 23.646C169.98 24.4562 170.45 25.3068 171.256 25.5431C172.068 25.7799 172.917 25.3136 173.149 24.5034Z" fill="url(#paint2_linear_16_84)"/>
<path fill-rule="evenodd" clip-rule="evenodd" d="M104.546 15.2228C103.361 16.6198 102.299 18.1252 101.395 19.7278C100.992 20.4413 100.284 21.9577 100.174 23.2581C100.052 24.6435 100.522 25.8123 101.731 26.4279C103.337 27.2442 104.619 27.1592 105.608 26.6653C106.561 26.1911 107.306 25.2591 107.776 24.0095C108.674 21.6212 108.539 17.971 108.069 15.888C109.333 14.5809 110.719 13.3955 112.203 12.3418C123.255 4.49376 139.467 7.3876 151.942 19.122C156.308 23.2305 158.408 31.8588 159.501 41.1681C161.205 55.6629 160.234 71.8522 160.1 76.5953C160.069 77.7666 160.179 78.4617 160.24 78.6006C160.527 79.2835 161.034 79.461 161.388 79.5283C161.901 79.6201 162.31 79.5222 162.64 79.3509C163.086 79.1159 163.452 78.7022 163.623 78.0639C163.715 77.7115 163.739 77.2207 163.727 76.6975C163.715 76.3346 163.641 75.9381 163.715 75.678C164.191 74.0124 164.765 72.3858 165.327 70.7477C167.201 65.2409 169.625 60.0805 172.318 54.9262C180.873 38.5484 189.147 21.2436 203.173 8.76567C203.802 8.20575 203.863 7.23768 203.301 6.60616C202.745 5.97465 201.78 5.91711 201.145 6.47764C186.839 19.2022 178.339 36.805 169.613 53.5071C167.323 57.8916 165.223 62.2822 163.476 66.8748C163.654 58.7508 163.586 47.5053 162.103 37.5552C160.784 28.7061 158.274 20.8856 154.03 16.8915C140.365 4.03665 122.541 1.24809 110.438 9.84574C109.144 10.7661 107.91 11.7782 106.763 12.876C100.43 1.41761 86.8747 -3.17497 74.8945 2.30549C74.1251 2.65613 73.7892 3.56424 74.1373 4.33222C74.4915 5.1002 75.3951 5.43922 76.1645 5.08858C86.9602 0.150288 99.2031 4.55741 104.546 15.2228ZM105.431 19.059C104.937 19.759 104.479 20.4848 104.051 21.235C103.825 21.6377 103.435 22.4118 103.27 23.1693C103.233 23.3468 103.227 23.6246 103.227 23.7531C103.648 23.9612 103.978 24.0615 104.247 23.9263C104.583 23.7599 104.754 23.3682 104.918 22.9307C105.334 21.8329 105.468 20.3777 105.431 19.059Z" fill="url(#paint3_linear_16_84)"/>
<path d="M19.84 126.448C16.7253 126.448 13.9093 125.915 11.392 124.848C8.91733 123.781 6.95467 122.245 5.504 120.24C4.05333 118.235 3.30667 115.867 3.264 113.136H12.864C12.992 114.971 13.632 116.421 14.784 117.488C15.9787 118.555 17.6 119.088 19.648 119.088C21.7387 119.088 23.3813 118.597 24.576 117.616C25.7707 116.592 26.368 115.269 26.368 113.648C26.368 112.325 25.9627 111.237 25.152 110.384C24.3413 109.531 23.3173 108.869 22.08 108.4C20.8853 107.888 19.2213 107.333 17.088 106.736C14.1867 105.883 11.8187 105.051 9.984 104.24C8.192 103.387 6.63467 102.128 5.312 100.464C4.032 98.7573 3.392 96.496 3.392 93.68C3.392 91.0347 4.05333 88.7307 5.376 86.768C6.69867 84.8053 8.55467 83.312 10.944 82.288C13.3333 81.2213 16.064 80.688 19.136 80.688C23.744 80.688 27.4773 81.8187 30.336 84.08C33.2373 86.2987 34.8373 89.4133 35.136 93.424H25.28C25.1947 91.888 24.5333 90.6293 23.296 89.648C22.1013 88.624 20.5013 88.112 18.496 88.112C16.7467 88.112 15.3387 88.56 14.272 89.456C13.248 90.352 12.736 91.6533 12.736 93.36C12.736 94.5547 13.12 95.5573 13.888 96.368C14.6987 97.136 15.68 97.776 16.832 98.288C18.0267 98.7573 19.6907 99.312 21.824 99.952C24.7253 100.805 27.0933 101.659 28.928 102.512C30.7627 103.365 32.3413 104.645 33.664 106.352C34.9867 108.059 35.648 110.299 35.648 113.072C35.648 115.461 35.0293 117.68 33.792 119.728C32.5547 121.776 30.7413 123.419 28.352 124.656C25.9627 125.851 23.1253 126.448 19.84 126.448ZM64.408 126L52.376 110.896V126H43.416V78.64H52.376V105.584L64.28 90.544H75.928L60.312 108.336L76.056 126H64.408ZM85.335 86.32C83.7563 86.32 82.4337 85.8293 81.367 84.848C80.343 83.824 79.831 82.5653 79.831 81.072C79.831 79.5787 80.343 78.3413 81.367 77.36C82.4337 76.336 83.7563 75.824 85.335 75.824C86.9137 75.824 88.215 76.336 89.239 77.36C90.3057 78.3413 90.839 79.5787 90.839 81.072C90.839 82.5653 90.3057 83.824 89.239 84.848C88.215 85.8293 86.9137 86.32 85.335 86.32ZM89.751 90.544V126H80.791V90.544H89.751ZM107.564 78.64V126H98.6035V78.64H107.564ZM125.376 78.64V126H116.416V78.64H125.376ZM147.797 126.576C144.895 126.576 142.293 126.064 139.989 125.04C137.685 123.973 135.85 122.544 134.485 120.752C133.162 118.96 132.437 116.976 132.309 114.8H141.333C141.503 116.165 142.165 117.296 143.317 118.192C144.511 119.088 145.983 119.536 147.733 119.536C149.439 119.536 150.762 119.195 151.701 118.512C152.682 117.829 153.173 116.955 153.173 115.888C153.173 114.736 152.575 113.883 151.381 113.328C150.229 112.731 148.373 112.091 145.812 111.408C143.167 110.768 140.991 110.107 139.285 109.424C137.621 108.741 136.17 107.696 134.933 106.288C133.738 104.88 133.141 102.981 133.141 100.592C133.141 98.6293 133.695 96.8373 134.805 95.216C135.957 93.5947 137.578 92.3147 139.669 91.376C141.802 90.4373 144.298 89.968 147.157 89.968C151.381 89.968 154.751 91.0347 157.269 93.168C159.786 95.2587 161.173 98.096 161.429 101.68H152.853C152.725 100.272 152.127 99.1627 151.061 98.352C150.037 97.4987 148.65 97.072 146.901 97.072C145.279 97.072 144.021 97.3707 143.125 97.968C142.271 98.5653 141.845 99.3973 141.845 100.464C141.845 101.659 142.442 102.576 143.637 103.216C144.831 103.813 146.687 104.432 149.205 105.072C151.765 105.712 153.877 106.373 155.541 107.056C157.205 107.739 158.634 108.805 159.829 110.256C161.066 111.664 161.706 113.541 161.749 115.888C161.749 117.936 161.173 119.771 160.021 121.392C158.911 123.013 157.29 124.293 155.157 125.232C153.066 126.128 150.613 126.576 147.797 126.576Z" fill="url(#paint4_linear_16_84)"/>
<defs>
<linearGradient id="paint0_linear_16_84" x1="184.988" y1="89.2073" x2="230" y2="89.2073" gradientUnits="userSpaceOnUse">
<stop stop-color="#B224EF"/>
<stop offset="1" stop-color="#7579FF"/>
</linearGradient>
<linearGradient id="paint1_linear_16_84" x1="182.667" y1="62.6612" x2="201.181" y2="62.6612" gradientUnits="userSpaceOnUse">
<stop stop-color="#B224EF"/>
<stop offset="1" stop-color="#7579FF"/>
</linearGradient>
<linearGradient id="paint2_linear_16_84" x1="170.156" y1="15.62" x2="185.77" y2="15.62" gradientUnits="userSpaceOnUse">
<stop stop-color="#B224EF"/>
<stop offset="1" stop-color="#7579FF"/>
</linearGradient>
<linearGradient id="paint3_linear_16_84" x1="74" y1="39.7817" x2="203.686" y2="39.7817" gradientUnits="userSpaceOnUse">
<stop stop-color="#B224EF"/>
<stop offset="1" stop-color="#7579FF"/>
</linearGradient>
<linearGradient id="paint4_linear_16_84" x1="0" y1="103.5" x2="165" y2="103.5" gradientUnits="userSpaceOnUse">
<stop stop-color="#B224EF"/>
<stop offset="1" stop-color="#7579FF"/>
</linearGradient>
</defs>
</svg>
